<svg xmlns="http://www.w3.org/2000/svg" width="1200" height="630" viewBox="0 0 1200 630" role="img" aria-label="Krema — A lightweight dock for KDE Plasma 6"><title>Krema — A lightweight dock for KDE Plasma 6</title><defs><linearGradient id="bg" x1="0" y1="0" x2="0" y2="1"><stop offset="0" stop-color="#18110D"/><stop offset="1" stop-color="#110C09"/></linearGradient><radialGradient id="glow" cx="930" cy="315" r="1" gradientUnits="userSpaceOnUse" gradientTransform="translate(930,315) scale(520,460) translate(-930,-315)"><stop offset="0" stop-color="#231A14" stop-opacity="0.9"/><stop offset="1" stop-color="#231A14" stop-opacity="0"/></radialGradient><radialGradient id="accentGlow"><stop offset="0" stop-color="#D69A5E" stop-opacity="0.22"/><stop offset="1" stop-color="#D69A5E" stop-opacity="0"/></radialGradient></defs><rect width="1200" height="630" fill="url(#bg)"/><rect width="1200" height="630" fill="url(#glow)"/><circle cx="930" cy="315" r="273.59999999999997" fill="url(#accentGlow)"/><svg x="80" y="118" width="311.37" height="132" viewBox="0 -10.9 342.98 145.4"><g fill="none" stroke="#F4ECE0" stroke-linecap="round" stroke-linejoin="round"><path transform="translate(6.5,28) scale(0.72)" d="M0,10 V100 M44,40 L4,74 M20,61 L46,100" stroke-width="18.06"/><path transform="translate(65.62,13) scale(0.87)" d="M0,40 V100 M0,64 C0,48 12,40 30,40" stroke-width="14.94"/><path transform="translate(117.72,-16) scale(1.16)" d="M2,70 H58 A28,28 0 1 0 51.4,88" stroke-width="11.21"/><path transform="translate(211,13) scale(0.87)" d="M0,40 V100 M0,60 C0,47 8,40 18,40 C29,40 34,47 34,60 V100 M34,60 C34,47 42,40 52,40 C63,40 68,47 68,60 V100" stroke-width="14.94"/><path transform="translate(296.16,28) scale(0.72)" d="M56,40 V100 M56,70 A28,28 0 1 1 0,70 A28,28 0 1 1 56,70" stroke-width="18.06"/></g><circle cx="151.36" cy="126" r="8.5" fill="#D69A5E"/></svg><text x="84" y="340" font-family="Noto Sans" font-size="44" font-weight="600" fill="#F4ECE0" text-anchor="start">A lightweight dock</text><text x="84" y="396" font-family="Noto Sans" font-size="44" font-weight="600" fill="#F4ECE0" text-anchor="start">for KDE Plasma 6</text><rect x="84" y="436" width="56" height="6" rx="3" fill="#D69A5E"/><text x="84" y="492" font-family="Noto Sans" font-size="26" font-weight="400" fill="#A89684" text-anchor="start">Wayland-native · parabolic zoom</text><text x="84" y="530" font-family="Noto Sans" font-size="26" font-weight="400" fill="#A89684" text-anchor="start">PipeWire window previews</text><g transform="translate(740,125) scale(1.48438)"><rect x="8" y="8" width="240" height="240" rx="56" fill="#18110D"/><rect x="9" y="9" width="238" height="238" rx="55" fill="none" stroke="#FFFFFF" stroke-opacity=".08" stroke-width="2"/><rect x="44" y="32" width="32" height="192" rx="16" fill="#F4ECE0"/><rect x="86" y="98" width="60" height="60" rx="16.2" fill="#D69A5E"/><rect x="151" y="57" width="36" height="36" rx="9.72" fill="#D69A5E" opacity="0.66"/><rect x="151" y="163" width="36" height="36" rx="9.72" fill="#D69A5E" opacity="0.66"/><rect x="192" y="32" width="20" height="20" rx="5.4" fill="#D69A5E" opacity="0.38"/><rect x="192" y="204" width="20" height="20" rx="5.4" fill="#D69A5E" opacity="0.38"/></g></svg>
